<?xml version="1.0" standalone="no"?>
<!DOCTYPE svg PUBLIC "-//W3C//DTD SVG 20010904//EN"
 "http://www.w3.org/TR/2001/REC-SVG-20010904/DTD/svg10.dtd">
<svg version="1.0" xmlns="http://www.w3.org/2000/svg"
 width="514.000000pt" height="486.000000pt" viewBox="0 0 514.000000 486.000000"
 preserveAspectRatio="xMidYMid meet">

<g transform="translate(0.000000,486.000000) scale(0.100000,-0.100000)"
fill="#ff0000" stroke="none">
<path d="M2250 4760 c-824 -66 -1526 -543 -1893 -1286 -98 -198 -163 -394
-209 -634 -20 -102 -22 -147 -22 -390 0 -244 3 -288 23 -395 73 -381 225 -724
457 -1026 24 -31 89 -105 146 -164 383 -402 871 -648 1428 -721 154 -20 484
-14 630 11 514 88 951 320 1315 696 336 350 540 754 622 1239 25 150 25 582 0
725 -119 662 -484 1225 -1024 1579 -265 173 -590 297 -905 345 -154 23 -417
33 -568 21z m-164 -1066 c21 -16 47 -48 58 -70 21 -39 21 -48 24 -1162 1 -734
-1 -1137 -8 -1161 -15 -56 -50 -101 -95 -125 -37 -19 -57 -21 -250 -21 -115 0
-222 3 -237 7 -38 11 -86 54 -109 99 -19 38 -19 65 -20 1179 l0 1141 21 45
c24 48 70 89 110 97 14 3 125 4 247 4 l221 -2 38 -31z m1219 25 c58 -16 111
-75 125 -141 8 -39 10 -358 8 -1168 -3 -1027 -4 -1117 -20 -1146 -22 -40 -81
-92 -116 -101 -35 -10 -419 -10 -454 0 -35 9 -94 61 -113 98 -12 23 -15 202
-15 1178 -1 1119 0 1151 18 1188 47 91 84 102 332 103 113 0 212 -5 235 -11z"/>
</g>
</svg>
