<?xml version="1.0" standalone="no"?>
<!DOCTYPE svg PUBLIC "-//W3C//DTD SVG 20010904//EN"
 "http://www.w3.org/TR/2001/REC-SVG-20010904/DTD/svg10.dtd">
<svg version="1.0" xmlns="http://www.w3.org/2000/svg"
 width="508.000000pt" height="491.000000pt" viewBox="0 0 508.000000 491.000000"
 preserveAspectRatio="xMidYMid meet">

<g transform="translate(0.000000,491.000000) scale(0.100000,-0.100000)"
fill="#008000" stroke="none">
<path d="M2300 4779 c-143 -20 -211 -32 -216 -40 -2 -4 -11 -6 -18 -3 -8 3
-34 0 -57 -7 -24 -7 -55 -13 -69 -15 -14 -2 -26 -7 -28 -13 -2 -5 -11 -7 -20
-4 -9 2 -48 -8 -87 -22 -38 -14 -79 -28 -89 -30 -11 -3 -22 -8 -25 -12 -3 -5
-16 -9 -28 -10 -73 -8 -482 -231 -467 -255 4 -7 2 -8 -4 -4 -7 4 -12 2 -12 -5
0 -7 -3 -10 -6 -6 -5 5 -66 -34 -84 -53 -3 -3 -20 -16 -38 -29 -18 -12 -30
-27 -26 -32 3 -5 2 -8 -3 -7 -15 4 -54 -23 -47 -34 4 -6 3 -8 -3 -5 -13 8
-166 -147 -156 -158 4 -4 3 -5 -4 -1 -7 3 -27 -13 -50 -41 -21 -27 -40 -50
-43 -53 -45 -42 -152 -199 -144 -212 4 -7 3 -8 -4 -4 -11 6 -38 -31 -34 -46 1
-5 -2 -8 -7 -8 -18 0 -164 -276 -155 -292 3 -4 1 -8 -3 -8 -13 0 -46 -97 -37
-111 4 -8 3 -9 -4 -5 -14 8 -27 -37 -16 -55 4 -7 3 -9 -3 -6 -6 4 -14 0 -17
-9 -3 -9 -2 -12 5 -8 7 4 7 0 0 -12 -12 -24 -59 -180 -65 -219 -3 -16 -14 -67
-26 -113 -11 -45 -19 -86 -16 -90 2 -4 -1 -30 -7 -57 -10 -49 -17 -425 -7
-425 3 0 5 -15 5 -32 1 -85 17 -203 28 -210 9 -6 9 -8 0 -8 -8 0 -7 -15 6 -52
10 -29 16 -58 14 -65 -4 -12 51 -220 70 -263 6 -14 10 -30 8 -37 -1 -6 3 -14
9 -18 5 -3 10 -15 10 -26 0 -13 4 -18 12 -13 7 4 8 3 4 -4 -7 -11 42 -124 57
-130 4 -2 4 -9 1 -14 -4 -6 1 -17 10 -24 10 -7 17 -15 17 -18 -3 -20 2 -28 27
-52 15 -15 18 -21 8 -13 -19 14 -19 14 -1 -18 11 -18 24 -33 29 -33 5 0 6 -3
3 -6 -3 -4 -2 -15 4 -26 9 -16 13 -17 27 -6 15 12 16 11 4 -4 -12 -15 -5 -30
58 -122 40 -58 93 -129 117 -158 67 -78 197 -218 203 -218 3 0 37 -29 75 -65
39 -36 76 -63 83 -60 7 3 10 1 7 -4 -6 -10 82 -78 96 -74 5 2 9 -1 9 -7 0 -15
89 -72 102 -64 6 4 8 3 5 -3 -4 -5 6 -16 21 -24 15 -7 39 -21 53 -31 14 -10
29 -15 33 -11 3 3 6 2 6 -4 0 -16 139 -86 156 -79 9 3 12 1 9 -4 -3 -6 2 -13
12 -16 10 -3 42 -17 72 -31 30 -13 60 -22 67 -19 8 3 14 1 14 -4 0 -5 19 -15
43 -22 55 -16 63 -16 59 2 -2 8 0 11 5 7 4 -5 8 -13 8 -19 0 -14 75 -40 98
-34 9 2 17 1 17 -4 0 -11 188 -53 206 -46 9 3 25 1 36 -5 15 -8 22 -8 28 1 5
8 9 8 13 -3 4 -11 27 -15 89 -18 236 -8 539 1 560 18 7 6 24 9 38 7 32 -4 131
17 125 26 -3 4 9 6 26 4 17 -2 40 1 52 8 12 6 33 12 47 13 47 4 51 5 44 17 -4
7 -3 8 5 4 11 -7 113 18 136 34 6 3 29 12 52 20 23 7 40 17 36 23 -3 6 -1 7 6
3 7 -4 32 2 56 13 25 12 49 21 54 21 5 0 14 7 21 15 7 8 21 15 31 15 10 0 23
9 29 19 13 26 13 34 -2 25 -7 -4 -8 -3 -4 5 10 15 29 3 22 -15 -8 -20 -6 -19
76 29 191 114 391 262 383 285 -3 7 0 10 6 7 13 -9 50 25 42 38 -3 5 -2 7 4 4
9 -6 116 94 111 104 -2 2 -1 3 1 1 7 -4 61 50 61 60 0 5 -4 6 -10 3 -16 -10
-11 1 7 16 14 12 16 12 9 -1 -5 -8 8 3 27 24 20 21 34 42 32 47 -3 4 0 11 6
15 8 5 10 2 5 -7 -4 -8 2 -3 13 11 22 26 28 45 11 35 -16 -10 -11 1 7 16 15
12 16 12 9 -1 -6 -10 -3 -9 10 3 17 15 17 19 4 28 -13 9 -13 10 1 6 11 -4 26
8 46 36 49 70 83 134 75 142 -4 5 -2 5 4 2 14 -8 27 20 17 35 -3 6 -1 8 4 5 6
-4 22 15 37 43 14 28 23 50 19 50 -5 0 -3 4 2 8 30 22 141 301 131 328 -3 8
-2 12 3 9 11 -6 11 -5 41 120 13 50 24 107 25 128 1 21 5 40 8 43 3 4 2 17 -4
31 -6 16 -6 22 1 18 6 -3 10 -3 11 2 3 32 8 79 13 148 4 44 10 100 13 125 9
64 9 207 1 260 -7 39 -17 134 -22 195 0 11 -5 26 -9 33 -5 6 -10 31 -12 55 -5
49 -8 66 -26 127 -7 25 -13 50 -14 55 0 11 -22 87 -33 115 -3 8 -6 22 -8 30
-2 20 -32 99 -50 132 -8 14 -14 33 -14 41 0 8 -7 20 -15 27 -8 7 -12 16 -9 21
3 5 0 9 -5 9 -6 0 -10 3 -9 8 3 12 -13 52 -21 52 -4 0 -8 10 -8 22 -1 13 -8
27 -15 33 -7 5 -14 17 -16 25 -2 8 -11 26 -20 40 -9 14 -25 41 -35 60 -34 61
-84 130 -90 125 -4 -3 -5 -2 -2 1 8 12 -16 45 -28 38 -7 -4 -9 -4 -5 1 11 12
-23 64 -39 58 -7 -3 -10 -10 -6 -16 3 -6 1 -7 -6 -3 -9 6 -9 11 0 22 10 12 9
18 -6 32 -11 10 -15 11 -10 3 6 -10 4 -12 -4 -7 -6 4 -9 12 -5 17 17 28 -365
387 -388 364 -3 -3 -11 3 -19 12 -13 17 -12 17 6 4 11 -7 5 0 -13 16 -17 16
-47 38 -66 49 -18 10 -62 38 -97 62 -34 23 -69 42 -76 42 -7 0 -13 4 -13 8 0
12 -78 44 -90 37 -6 -4 -9 -1 -8 6 2 6 -3 14 -11 17 -8 3 -11 0 -7 -7 4 -6 2
-11 -3 -11 -6 0 -11 6 -11 13 0 20 -56 46 -107 49 -7 1 -10 5 -8 9 3 4 -10 13
-28 19 -17 7 -50 19 -72 27 -22 9 -49 17 -60 19 -11 2 -40 10 -64 19 -24 9
-50 14 -58 11 -7 -3 -13 -1 -13 5 0 6 -4 8 -9 5 -5 -4 -11 -2 -13 4 -2 6 -22
11 -45 13 -24 1 -43 4 -43 7 0 10 -139 32 -152 24 -8 -4 -10 -3 -5 2 25 26
-455 44 -613 23z m-306 -84 c-4 -8 -11 -12 -16 -9 -6 4 -5 10 3 15 19 12 19
11 13 -6z m-560 -211 c3 -8 2 -12 -4 -9 -6 3 -10 10 -10 16 0 14 7 11 14 -7z
m-169 -114 c3 -6 -1 -7 -9 -4 -18 7 -21 14 -7 14 6 0 13 -4 16 -10z m2678 -85
c-3 -9 -8 -14 -10 -11 -3 3 -2 9 2 15 9 16 15 13 8 -4z m399 -367 c-8 -8 -9
-4 -5 13 4 13 8 18 11 10 2 -7 -1 -18 -6 -23z m-2444 -195 c26 -15 71 -42 100
-60 45 -29 56 -32 70 -22 14 11 15 11 5 -1 -10 -11 -2 -20 43 -47 31 -18 60
-31 65 -27 5 3 8 1 7 -5 -4 -14 182 -123 199 -116 8 2 11 10 7 16 -5 8 -3 9 5
4 9 -5 10 -10 2 -18 -15 -15 -14 -27 3 -27 7 0 19 -7 27 -16 7 -8 21 -13 31
-11 10 3 16 1 13 -3 -7 -12 94 -72 107 -64 6 4 8 3 4 -4 -8 -14 100 -76 115
-66 7 4 9 3 6 -4 -4 -6 23 -27 64 -51 75 -43 84 -47 74 -31 -10 16 1 11 16 -7
10 -11 10 -14 2 -9 -7 4 -13 5 -13 2 0 -3 28 -21 63 -41 34 -20 113 -67 174
-104 125 -76 142 -85 161 -82 7 1 11 -4 10 -11 -2 -7 5 -12 14 -12 10 1 16 -2
13 -6 -7 -11 73 -52 87 -44 7 4 8 3 4 -4 -7 -12 260 -176 274 -167 5 3 12 0
16 -6 5 -8 2 -10 -7 -5 -8 4 -5 0 5 -8 23 -19 40 -21 30 -4 -4 7 -3 8 5 4 6
-4 9 -11 6 -15 -2 -5 32 -30 76 -56 108 -64 139 -106 139 -190 0 -53 -4 -68
-29 -103 -17 -22 -43 -48 -60 -58 -16 -10 -28 -21 -25 -26 3 -4 -3 -5 -12 -1
-14 5 -16 3 -10 -13 5 -15 4 -16 -5 -7 -9 9 -25 3 -70 -25 -32 -20 -56 -39
-53 -43 2 -4 -1 -11 -7 -15 -8 -4 -9 -3 -5 4 4 7 5 12 2 12 -11 0 -442 -264
-453 -277 -6 -8 -14 -14 -17 -14 -17 1 -35 -12 -29 -22 3 -5 1 -7 -5 -3 -14 9
-133 -64 -125 -77 3 -6 1 -7 -5 -3 -13 8 -74 -23 -67 -34 2 -4 -1 -7 -8 -7 -7
0 -89 -46 -182 -103 -94 -57 -189 -114 -213 -128 -23 -13 -40 -28 -37 -33 4
-5 -2 -6 -11 -2 -10 4 -15 2 -11 -4 3 -5 0 -10 -7 -10 -19 0 -136 -73 -136
-84 0 -6 -4 -8 -8 -5 -5 3 -21 -4 -38 -15 -16 -11 -44 -27 -61 -35 -18 -9 -31
-19 -28 -23 2 -4 -2 -8 -9 -8 -22 0 -155 -87 -149 -98 4 -5 3 -7 -2 -3 -11 10
-47 -11 -40 -22 3 -6 -1 -7 -9 -4 -8 3 -24 -4 -35 -15 -12 -12 -21 -19 -21
-16 0 3 -18 -6 -41 -21 -33 -20 -54 -26 -106 -26 -35 -1 -69 4 -76 11 -14 14
-30 14 -21 -1 4 -7 3 -8 -5 -4 -6 4 -9 12 -6 17 6 8 -8 13 -28 10 -4 0 -6 4
-5 11 2 7 -2 12 -9 13 -6 0 -15 4 -20 9 -5 5 -2 6 6 1 9 -5 12 -4 7 6 -3 8 -9
22 -12 32 -4 9 -10 17 -15 17 -5 0 -8 545 -6 1233 2 1376 -4 1263 72 1324 62
50 141 52 223 6z m17 19 c-3 -3 -11 0 -18 7 -9 10 -8 11 6 5 10 -3 15 -9 12
-12z m-285 -36 c0 -2 -8 -10 -17 -17 -16 -13 -17 -12 -4 4 13 16 21 21 21 13z
m501 -103 c13 -16 12 -17 -3 -4 -17 13 -22 21 -14 21 2 0 10 -8 17 -17z m446
-239 c-3 -3 -12 -4 -19 -1 -8 3 -5 6 6 6 11 1 17 -2 13 -5z m-2177 -40 c0 -8
-19 -13 -24 -6 -3 5 1 9 9 9 8 0 15 -2 15 -3z m2265 -23 c3 -5 2 -12 -3 -15
-5 -3 -9 1 -9 9 0 17 3 19 12 6z m330 -211 c3 -5 1 -10 -4 -10 -6 0 -11 5 -11
10 0 6 2 10 4 10 3 0 8 -4 11 -10z m890 -520 c3 -5 1 -10 -4 -10 -6 0 -11 5
-11 10 0 6 2 10 4 10 3 0 8 -4 11 -10z m29 -9 c3 -5 -2 -15 -12 -22 -15 -12
-16 -12 -5 2 7 9 10 19 6 22 -3 4 -4 7 0 7 3 0 8 -4 11 -9z m-343 -508 c13
-16 12 -17 -3 -4 -17 13 -22 21 -14 21 2 0 10 -8 17 -17z m-476 -291 c-3 -3
-11 0 -18 7 -9 10 -8 11 6 5 10 -3 15 -9 12 -12z m1730 -30 c-3 -3 -11 0 -18
7 -9 10 -8 11 6 5 10 -3 15 -9 12 -12z m-1890 -92 c3 -6 -1 -7 -9 -4 -18 7
-21 14 -7 14 6 0 13 -4 16 -10z m-782 -465 c-3 -9 -8 -14 -10 -11 -3 3 -2 9 2
15 9 16 15 13 8 -4z m-1541 -89 c7 4 8 2 4 -5 -9 -13 -26 -5 -25 12 0 9 2 8 6
-1 2 -6 10 -9 15 -6z m3889 -13 c-12 -20 -14 -14 -5 12 4 9 9 14 11 11 3 -2 0
-13 -6 -23z m-2586 -23 c3 -5 1 -10 -4 -10 -6 0 -11 5 -11 10 0 6 2 10 4 10 3
0 8 -4 11 -10z m-125 -28 c0 -5 -7 -9 -15 -9 -8 0 -12 4 -9 9 3 4 9 8 15 8 5
0 9 -4 9 -8z m-995 -143 c-3 -12 -7 -24 -10 -27 -3 -3 -3 5 -1 19 6 30 5 29
10 29 3 0 3 -10 1 -21z m3407 -157 c-7 -2 -9 -9 -6 -14 4 -7 2 -8 -4 -4 -6 4
-9 13 -6 21 4 8 11 12 17 8 8 -5 7 -8 -1 -11z m-3168 -90 c3 -5 -1 -9 -9 -9
-8 0 -12 4 -9 9 3 4 7 8 9 8 2 0 6 -4 9 -8z m2891 -150 c-3 -3 -11 0 -18 7 -9
10 -8 11 6 5 10 -3 15 -9 12 -12z m-2688 -27 c0 -8 -4 -12 -9 -9 -5 3 -6 10
-3 15 9 13 12 11 12 -6z m2620 0 c0 -8 -4 -12 -9 -9 -5 3 -6 10 -3 15 9 13 12
11 12 -6z m-2346 -152 c13 -16 12 -17 -3 -4 -17 13 -22 21 -14 21 2 0 10 -8
17 -17z m744 -213 c3 -6 -1 -7 -9 -4 -18 7 -21 14 -7 14 6 0 13 -4 16 -10z
m620 0 c3 -6 -1 -7 -9 -4 -18 7 -21 14 -7 14 6 0 13 -4 16 -10z m-600 -20 c-3
-5 -12 -10 -18 -10 -7 0 -6 4 3 10 19 12 23 12 15 0z"/>
</g>
</svg>
